<svg width="32" height="32" viewBox="0 0 32 32" fill="none" xmlns="http://www.w3.org/2000/svg">
<path d="M16 32C24.8366 32 32 24.8366 32 16C32 7.16344 24.8366 0 16 0C7.16344 0 0 7.16344 0 16C0 24.8366 7.16344 32 16 32Z" fill="#E6A5B8"/>
<path d="M10.7541 9.09169L9.57909 7.90835C6.83325 10.6359 6.83325 12.6125 6.83325 15.1667H7.66659L8.49992 15.1142C8.49992 12.6742 8.49992 11.33 10.7541 9.09169ZM22.4199 7.90835L21.2466 9.09169C23.4999 11.33 23.4999 12.6742 23.4999 15.1667L25.1666 15.1142C25.1666 12.6125 25.1666 10.6359 22.4199 7.90835ZM15.9999 24.3334C16.516 24.334 17.0195 24.1739 17.4403 23.8752C17.8612 23.5765 18.1785 23.1541 18.3483 22.6667H13.6516C13.8213 23.1541 14.1386 23.5765 14.5595 23.8752C14.9804 24.1739 15.4838 24.334 15.9999 24.3334ZM21.8333 18.155V14.3334C21.8333 11.6525 20.0124 9.39419 17.5458 8.71502C17.3016 8.10002 16.7049 7.66669 15.9999 7.66669C15.2949 7.66669 14.6983 8.10002 14.4541 8.71502C11.9866 9.39419 10.1666 11.6525 10.1666 14.3334V18.155L8.74409 19.5775C8.66655 19.6548 8.60506 19.7466 8.56316 19.8477C8.52125 19.9488 8.49976 20.0572 8.49992 20.1667V21C8.49992 21.221 8.58772 21.433 8.744 21.5893C8.90028 21.7456 9.11224 21.8334 9.33325 21.8334H22.6666C22.8876 21.8334 23.0996 21.7456 23.2558 21.5893C23.4121 21.433 23.4999 21.221 23.4999 21V20.1667C23.5001 20.0572 23.4786 19.9488 23.4367 19.8477C23.3948 19.7466 23.3333 19.6548 23.2558 19.5775L21.8333 18.155Z" fill="white"/>
</svg>
