<svg width="32" height="32" viewBox="0 0 32 32" fill="none" xmlns="http://www.w3.org/2000/svg">
<path d="M16 32C24.8366 32 32 24.8366 32 16C32 7.16344 24.8366 0 16 0C7.16344 0 0 7.16344 0 16C0 24.8366 7.16344 32 16 32Z" fill="#C23557"/>
<path d="M10.7541 9.09166L9.57909 7.90832C6.83325 10.6358 6.83325 12.6125 6.83325 15.1667H7.66659L8.49992 15.1142C8.49992 12.6742 8.49992 11.33 10.7541 9.09166ZM22.4199 7.90832L21.2466 9.09166C23.4999 11.33 23.4999 12.6742 23.4999 15.1667L25.1666 15.1142C25.1666 12.6125 25.1666 10.6358 22.4199 7.90832ZM15.9999 24.3333C16.516 24.334 17.0195 24.1738 17.4403 23.8751C17.8612 23.5764 18.1785 23.154 18.3483 22.6667H13.6516C13.8213 23.154 14.1386 23.5764 14.5595 23.8751C14.9804 24.1738 15.4838 24.334 15.9999 24.3333ZM21.8333 18.155V14.3333C21.8333 11.6525 20.0124 9.39416 17.5458 8.71499C17.3016 8.09999 16.7049 7.66666 15.9999 7.66666C15.2949 7.66666 14.6983 8.09999 14.4541 8.71499C11.9866 9.39416 10.1666 11.6525 10.1666 14.3333V18.155L8.74409 19.5775C8.66655 19.6547 8.60506 19.7466 8.56316 19.8477C8.52125 19.9488 8.49976 20.0572 8.49992 20.1667V21C8.49992 21.221 8.58772 21.433 8.744 21.5892C8.90028 21.7455 9.11224 21.8333 9.33325 21.8333H22.6666C22.8876 21.8333 23.0996 21.7455 23.2558 21.5892C23.4121 21.433 23.4999 21.221 23.4999 21V20.1667C23.5001 20.0572 23.4786 19.9488 23.4367 19.8477C23.3948 19.7466 23.3333 19.6547 23.2558 19.5775L21.8333 18.155Z" fill="white"/>
</svg>
