<svg width="27" height="27" viewBox="0 0 32 32" fill="none" xmlns="http://www.w3.org/2000/svg">
<path d="M16 32C24.8366 32 32 24.8366 32 16C32 7.16344 24.8366 0 16 0C7.16344 0 0 7.16344 0 16C0 24.8366 7.16344 32 16 32Z" fill="#C1D0E0"/>
<g clip-path="url(#clip0)">
<path d="M13.614 21.2572H14.2281V16.7428H13.614C13.2749 16.7428 13 16.463 13 16.1178V14.625C13 14.2798 13.2749 14 13.614 14H17.0526C17.3918 14 17.6667 14.2798 17.6667 14.625V21.2572H18.2807C18.6198 21.2572 18.8947 21.537 18.8947 21.8822V23.375C18.8947 23.7202 18.6198 24 18.2807 24H13.614C13.2749 24 13 23.7202 13 23.375V21.8822C13 21.537 13.2749 21.2572 13.614 21.2572ZM15.9474 8C14.7265 8 13.7368 9.00734 13.7368 10.25C13.7368 11.4927 14.7265 12.5 15.9474 12.5C17.1682 12.5 18.1579 11.4927 18.1579 10.25C18.1579 9.00734 17.1682 8 15.9474 8Z" fill="white"/>
</g>
<defs>
<clipPath id="clip0">
<rect width="5.89474" height="16" fill="white" transform="translate(13 8)"/>
</clipPath>
</defs>
</svg>
