<svg width="50" height="50" viewBox="0 0 50 50" fill="none" xmlns="http://www.w3.org/2000/svg">
<circle cx="25" cy="25" r="25" fill="#C23557"/>
<g clip-path="url(#clip0)">
<path d="M30.9766 10C29.5555 10 28.3602 11.0067 28.0613 12.3467L20.7168 16H14.9727C13.6445 16 12.5223 16.8733 12.1305 18.0733C9.78633 18.48 8 20.5333 8 23C8 25.4667 9.78633 27.52 12.1305 27.9267C12.416 28.8133 13.1066 29.52 13.9766 29.8267V37C13.9766 38.6533 15.318 40 16.9648 40C18.6117 40 19.9531 38.6533 19.9531 37V34H20.9492C22.4035 34 23.6121 32.9533 23.8844 31.5733L28.0613 33.6533C28.3602 34.9933 29.5555 35.9933 30.9766 35.9933C32.6234 35.9933 33.9648 34.6467 33.9648 32.9933V13C33.9648 11.3467 32.6234 10 30.9766 10ZM11.9844 25.8267C10.8223 25.4133 9.99219 24.3 9.99219 23C9.99219 21.6933 10.8223 20.5867 11.9844 20.1733V25.8267ZM17.9609 37C17.9609 37.5533 17.516 38 16.9648 38C16.4137 38 15.9688 37.5533 15.9688 37V30H17.9609V37ZM18.957 28H14.9727C14.4215 28 13.9766 27.5533 13.9766 27V19C13.9766 18.4467 14.4215 18 14.9727 18H19.9531V28H18.957ZM21.9453 31C21.9453 31.5533 21.5004 32 20.9492 32H19.9531V30H20.7168L21.9453 30.6133V31ZM27.9883 31.3867L21.9453 28.38V17.62L27.9883 14.6133V31.3867ZM31.9727 33C31.9727 33.5533 31.5277 34 30.9766 34C30.4254 34 29.9805 33.5533 29.9805 33V13C29.9805 12.4467 30.4254 12 30.9766 12C31.5277 12 31.9727 12.4467 31.9727 13V33Z" fill="white"/>
<path d="M41.0039 22H36.9531C36.402 22 35.957 22.4467 35.957 23C35.957 23.5533 36.402 24 36.9531 24H41.0039C41.5551 24 42 23.5533 42 23C42 22.4467 41.5551 22 41.0039 22Z" fill="white"/>
<path d="M41.4422 28.1L37.3914 26.1C36.9 25.8533 36.3023 26.06 36.0566 26.5533C35.8109 27.0467 36.0168 27.6467 36.5082 27.8933L40.559 29.8933C41.0504 30.14 41.648 29.9333 41.8937 29.44C42.1394 28.9467 41.9402 28.3467 41.4422 28.1Z" fill="white"/>
<path d="M41.9004 16.56C41.6547 16.0667 41.0637 15.86 40.5656 16.1067L36.5148 18.1067C36.0234 18.3533 35.8176 18.9467 36.0633 19.4467C36.309 19.94 36.9 20.1467 37.3981 19.9L41.4488 17.9C41.9402 17.6533 42.1395 17.0533 41.9004 16.56Z" fill="white"/>
</g>
<defs>
<clipPath id="clip0">
<rect width="34" height="30" fill="white" transform="translate(8 10)"/>
</clipPath>
</defs>
</svg>
